<svg width="442" height="443" viewBox="0 0 442 443" fill="none" xmlns="http://www.w3.org/2000/svg">
<g id="tools-new" clip-path="url(#clip0)">
<path id="hammer" d="M214.43 0.00741693C190.262 0.311137 166.284 9.93756 148.09 28.1324L70.0059 106.216L64.7559 111.466L69.9531 116.769C74.5141 121.421 72.8779 130.84 66.3789 137.339C59.8799 143.837 50.4586 145.476 45.8086 140.916L40.5059 135.718L0 176.222L75.9082 252.13L116.391 211.648L111.238 206.345C106.713 201.689 108.365 192.283 114.844 185.804C121.322 179.325 130.728 177.676 135.385 182.201L140.686 187.353L153.377 174.664L197.246 218.533L197.064 218.714C197.282 218.914 197.468 219.135 197.535 219.408C197.538 219.418 197.534 219.424 197.537 219.433C197.544 219.446 197.556 219.447 197.563 219.461C197.587 219.511 197.617 219.559 197.645 219.607C197.652 219.607 197.655 219.601 197.662 219.601C197.732 219.606 197.81 219.645 197.883 219.734C198.025 219.909 198.249 219.979 198.412 220.126C198.492 220.198 198.566 220.278 198.627 220.367C198.724 220.507 198.777 220.667 198.822 220.83C199.022 220.864 199.176 221.019 199.313 221.163C199.433 221.301 199.572 221.418 199.686 221.562C199.707 221.557 199.735 221.588 199.76 221.601C199.909 221.73 199.914 221.717 200.022 221.874C200.025 221.878 200.021 221.876 200.026 221.88C200.036 221.882 200.044 221.875 200.055 221.878C200.125 221.898 200.202 221.949 200.272 222.041C200.439 222.259 200.541 222.387 200.692 222.607C200.704 222.616 200.715 222.619 200.729 222.63C200.864 222.745 200.795 222.686 200.934 222.81C200.947 222.83 200.961 222.851 200.975 222.871C201.056 222.906 201.11 222.958 201.121 223.025C201.126 223.029 201.132 223.032 201.137 223.037C201.178 223.073 201.208 223.12 201.244 223.162C201.259 223.193 201.288 223.226 201.301 223.257C201.358 223.299 201.418 223.341 201.455 223.402C201.492 223.457 201.547 223.493 201.594 223.54C201.654 223.603 201.661 223.615 201.707 223.681C201.722 223.702 201.737 223.722 201.752 223.744C201.774 223.772 201.831 223.845 201.855 223.871C201.973 223.996 202.102 224.111 202.207 224.248C202.235 224.278 202.281 224.3 202.293 224.339C202.299 224.358 202.219 224.331 202.236 224.339C202.282 224.36 202.335 224.358 202.381 224.378C202.504 224.434 202.571 224.559 202.686 224.626C202.753 224.691 202.877 224.808 202.934 224.878C202.955 224.905 203.025 225.029 203.049 225.064C203.086 225.12 203.072 225.079 203.082 225.113C203.114 225.141 203.076 225.112 203.162 225.146C203.279 225.193 203.386 225.265 203.461 225.367C203.465 225.372 203.567 225.495 203.58 225.507C203.608 225.534 203.724 225.615 203.736 225.638C203.767 225.695 203.776 225.722 203.783 225.751C203.807 225.778 203.83 225.804 203.852 225.832C204.008 226.032 203.855 225.861 204.006 226.041C204.034 226.074 204.064 226.107 204.094 226.14C204.166 226.242 204.19 226.27 204.252 226.382C204.265 226.406 204.279 226.43 204.287 226.456C204.288 226.459 204.277 226.461 204.279 226.464C204.283 226.471 204.405 226.63 204.408 226.634C204.44 226.673 204.474 226.711 204.504 226.752C204.596 226.879 204.415 226.674 204.551 226.834C204.584 226.873 204.621 226.909 204.658 226.945C204.674 226.957 204.7 226.976 204.709 226.982C204.739 227.001 204.772 227.013 204.803 227.029C204.841 227.055 204.878 227.081 204.916 227.107C205.151 227.289 205.377 227.483 205.607 227.671C205.994 227.988 205.702 227.73 206.033 228.029C206.123 228.111 206.203 228.189 206.236 228.304C206.233 228.292 206.238 228.287 206.223 228.255C206.323 228.313 206.402 228.4 206.492 228.47C206.54 228.508 206.555 228.481 206.59 228.554L206.592 228.552C206.659 228.505 206.738 228.629 206.811 228.668C206.883 228.721 206.957 228.775 207.029 228.83C207.049 228.845 207.068 228.861 207.088 228.877H207.09C207.159 228.882 207.231 228.893 207.291 228.927C207.31 228.938 207.319 228.961 207.332 228.978C207.354 228.98 207.358 228.972 207.387 228.976C207.444 228.985 207.487 229.034 207.531 229.072C207.556 229.093 207.576 229.12 207.588 229.15C207.609 229.203 207.634 229.259 207.627 229.316C207.623 229.346 207.605 229.372 207.592 229.4L207.854 229.138L235.076 256.361L234.77 256.668C235.006 256.862 235.067 256.998 235.016 257.095C235.172 257.236 235.272 257.417 235.363 257.621C235.37 257.636 235.049 257.297 235.225 257.513C235.309 257.617 235.409 257.704 235.502 257.8C235.552 257.942 235.556 257.902 235.688 258.05C235.83 258.162 235.955 258.298 236.082 258.429C236.088 258.435 236.089 258.444 236.094 258.451C236.159 258.477 236.228 258.497 236.281 258.541C238.623 260.45 235.931 258.374 237.1 259.424C237.119 259.449 237.143 259.483 237.164 259.509C237.17 259.512 237.189 259.524 237.193 259.527C237.346 259.624 237.499 259.719 237.65 259.818C237.765 259.893 238.048 259.961 238.043 260.047C238.309 260.106 238.866 260.362 238.994 260.418C239.182 260.536 239.379 260.643 239.559 260.773C239.666 260.851 239.755 260.95 239.854 261.039C239.876 261.069 239.893 261.106 239.922 261.131C240.245 261.407 240.609 261.636 240.893 261.961C241.06 262.197 241.213 262.444 241.393 262.672C241.562 262.885 241.753 263.083 241.922 263.297C242.059 263.469 242.172 263.657 242.309 263.83C242.39 263.932 242.807 264.372 242.9 264.47C243.135 264.817 243.119 264.76 243.313 265.285C243.32 265.305 243.297 265.326 243.297 265.347C243.297 265.349 243.296 265.351 243.299 265.353C243.494 265.407 243.693 265.449 243.879 265.527C244.341 265.721 244.442 265.844 244.756 266.176C244.884 266.31 245.087 266.405 245.131 266.586C245.138 266.615 245.139 266.645 245.145 266.674C245.248 266.773 245.352 266.886 245.358 266.892C245.422 266.963 245.485 267.036 245.549 267.107L245.686 266.971L385.655 406.939C391.982 413.266 400.29 416.428 408.6 416.428C416.909 416.427 425.221 413.264 431.547 406.939C444.198 394.287 444.198 373.701 431.547 361.049L291.574 221.078L291.582 221.07C291.566 221.065 291.55 221.059 291.534 221.054C291.063 220.916 291.708 221.092 291.1 220.986C290.747 220.924 290.472 220.651 290.192 220.453C290.179 220.438 290.168 220.422 290.153 220.41C290.138 220.398 290.085 220.382 290.104 220.38C290.27 220.366 290.734 220.474 290.604 220.37C289.862 219.783 289.443 219.894 289.821 220.169C289.739 220.094 289.649 220.029 289.577 219.945C289.418 219.759 289.343 219.583 289.286 219.37C289.272 219.354 289.26 219.34 289.182 219.238C289.16 219.209 289.139 219.18 289.118 219.152C289.114 219.15 289.116 219.148 289.112 219.146C289.023 219.106 289.174 219.093 288.717 218.585C288.658 218.519 288.791 218.746 288.817 218.831C288.826 218.862 288.783 218.776 288.766 218.749C288.662 218.584 288.726 218.679 288.582 218.49C288.551 218.451 288.511 218.418 288.487 218.374C288.482 218.365 288.523 218.377 288.516 218.37C288.438 218.299 288.345 218.247 288.268 218.175C288.18 218.093 288.136 218.005 288.076 217.909C287.955 217.819 287.821 217.726 287.731 217.603C287.728 217.601 287.726 217.599 287.723 217.597C287.705 217.583 287.688 217.568 287.67 217.554C287.584 217.484 287.495 217.419 287.412 217.345C287.36 217.298 287.313 217.243 287.266 217.19C287.264 217.188 287.272 217.187 287.27 217.186C287.193 217.122 287.103 217.074 287.024 217.013C286.935 216.944 286.852 216.87 286.766 216.798C286.722 216.751 286.676 216.703 286.633 216.655C286.616 216.636 286.564 216.614 286.584 216.597C286.609 216.576 286.644 216.616 286.676 216.62C286.727 216.626 286.875 216.652 286.83 216.626C286.06 216.183 286.333 216.539 286.149 216.288C286.173 216.307 286.244 216.363 286.221 216.343C285.972 216.12 286.121 216.278 285.953 216.103C285.943 216.092 285.927 216.084 285.926 216.069C285.924 216.068 285.924 216.066 285.922 216.065C285.877 216.033 285.83 216.004 285.787 215.97C285.729 215.923 285.886 216.035 285.858 215.997C285.842 215.976 285.825 215.955 285.809 215.935C285.74 215.917 285.668 215.9 285.608 215.876C285.404 215.796 285.161 215.63 284.992 215.497C284.977 215.485 284.965 215.47 284.951 215.456C284.795 215.363 284.67 215.258 284.528 215.089C284.478 215.014 284.426 214.942 284.379 214.866C284.358 214.833 284.356 214.779 284.326 214.751C283.821 214.269 284.65 215.097 284.02 214.46C283.977 214.376 284.014 214.444 283.869 214.292C283.859 214.275 283.854 214.257 283.846 214.239C283.818 214.21 283.803 214.202 283.781 214.183C283.639 214.035 283.549 213.949 283.426 213.773C283.386 213.715 283.352 213.653 283.319 213.591C283.317 213.59 283.317 213.588 283.315 213.587C283.249 213.509 283.178 213.436 283.119 213.353C283.086 213.305 283.065 213.251 283.041 213.198C283.033 213.181 283.006 213.136 283.024 213.144C283.058 213.158 283.124 213.253 283.102 213.224C282.986 213.074 282.872 212.984 283.02 213.108C283.359 213.295 283 213.11 282.76 212.815C282.72 212.766 282.71 212.7 282.693 212.638C282.666 212.627 282.637 212.62 282.611 212.607C282.48 212.536 282.382 212.332 282.279 212.23C282.23 212.156 282.177 212.076 282.133 212.001C282.124 211.985 282.122 211.975 282.108 211.952C282.038 211.887 281.934 211.79 282.008 211.868C281.957 211.803 281.899 211.743 281.854 211.673C281.817 211.615 281.792 211.55 281.764 211.487C281.763 211.484 281.762 211.482 281.76 211.477C281.755 211.47 281.747 211.468 281.742 211.462C281.776 211.544 281.447 211.091 281.471 211.173C281.446 211.148 281.432 211.132 281.414 211.114C281.397 211.087 281.308 210.929 281.068 210.384C281.007 210.296 281.104 210.596 281.121 210.702C281.13 210.719 281.137 210.739 281.148 210.755C281.042 210.636 280.942 210.512 280.842 210.389H280.844C280.8 210.336 280.768 210.284 280.73 210.231L254.812 184.315C254.768 184.35 254.761 184.34 254.791 184.294L253.746 183.249L254.236 182.759C254.198 182.7 254.161 182.639 254.123 182.581C254.092 182.553 254.064 182.529 254.018 182.487C253.001 181.416 252.57 180.985 252.135 180.485C252.133 180.483 252.13 180.483 252.127 180.481C251.998 180.402 251.887 180.295 251.775 180.194C251.378 179.836 251.021 179.453 250.691 179.038C250.602 178.958 250.514 178.877 250.428 178.794C250.296 178.668 250.175 178.531 250.051 178.397C249.543 178.144 249.209 177.62 248.808 177.214C248.751 177.155 248.689 177.084 248.67 177.007C248.637 176.984 248.602 176.962 248.572 176.936C248.487 176.863 248.407 176.785 248.324 176.71C248.322 176.71 248.318 176.71 248.316 176.71C247.823 176.648 247.545 176.081 247.162 175.764C247.147 175.752 247.194 175.785 247.21 175.796C247.214 175.791 247.229 175.785 247.224 175.78C247.082 175.638 246.931 175.505 246.785 175.368C246.586 175.139 246.057 174.576 245.835 174.145C245.816 174.124 245.796 174.104 245.777 174.083C245.743 174.044 245.731 173.991 245.701 173.95C245.574 173.782 245.222 173.363 245.068 173.178C245.019 173.128 244.944 173.093 244.923 173.026C244.918 173.011 244.931 172.99 244.921 172.977C244.617 172.589 244.245 172.244 243.873 171.905L243.136 172.641L199.267 128.772L212.761 115.278L186.21 88.7273C200.461 67.7353 232.254 39.1338 261.755 26.0398L275.105 20.1148L262.51 12.7184C247.589 3.95636 230.965 -0.200383 214.43 0.00741693ZM281.742 211.462C281.748 211.467 281.752 211.469 281.76 211.476C281.747 211.448 281.723 211.404 281.738 211.418C281.821 211.491 281.846 211.52 281.889 211.562C281.794 211.407 281.69 211.253 281.549 211.14C281.451 211.062 281.695 211.347 281.742 211.463V211.462ZM214.357 15.0094C223.569 14.8638 232.812 16.3305 241.648 19.4684C214.806 34.8144 189.279 58.7303 175.477 77.9293L147.49 49.943C153.817 43.617 158.127 39.3078 158.695 38.7398C173.983 23.4519 194.092 15.3295 214.357 15.0094V15.0094ZM136.885 60.5504L191.549 115.277L141.697 165.129L87.002 110.431C97.768 99.6662 119.999 77.4364 136.885 60.5504V60.5504ZM86.6504 131.296L120.893 165.537C114.995 167.031 109.173 170.261 104.236 175.199C99.7743 179.66 96.7009 184.841 95.0449 190.15L62.0352 157.14C67.3402 155.483 72.5194 152.41 76.9844 147.945C81.9254 143.004 85.1554 137.19 86.6504 131.296ZM188.66 139.379L420.938 371.652C427.74 378.457 427.74 389.529 420.938 396.332C414.134 403.136 403.062 403.136 396.26 396.332L163.984 164.054L188.66 139.379ZM40.5586 156.877L95.2539 211.574L75.9082 230.918L21.2129 176.222L40.5586 156.877ZM245.484 171.289C245.408 171.689 245.353 172.278 245.402 172.57C245.496 173.144 245.598 173.528 245.723 173.828C245.635 173.085 245.787 172.319 245.748 171.576C245.68 171.505 245.615 171.434 245.545 171.365C245.519 171.339 245.508 171.314 245.484 171.289L245.484 171.289ZM246.279 174.648C246.237 174.618 246.431 174.786 246.396 174.748C246.383 174.732 246.369 174.718 246.355 174.703C246.33 174.685 246.305 174.666 246.279 174.648V174.648ZM247.717 176.16C247.624 176.078 247.837 176.274 247.988 176.414C247.991 176.414 247.993 176.414 247.996 176.414C247.904 176.328 247.811 176.243 247.717 176.16H247.717ZM248.791 177.095C248.8 177.107 248.811 177.125 248.818 177.132C248.875 177.175 248.922 177.285 248.988 177.261C249.052 177.238 248.889 177.168 248.836 177.127C248.822 177.115 248.806 177.106 248.791 177.095L248.791 177.095ZM250.76 179.099C250.793 179.137 250.823 179.176 250.857 179.212C250.88 179.236 250.964 179.288 250.939 179.265C250.881 179.208 250.82 179.154 250.76 179.099L250.76 179.099ZM281.238 210.921C281.321 210.983 281.371 211.055 281.4 211.101C281.368 211.068 281.334 211.037 281.293 210.99C281.274 210.968 281.215 210.904 281.238 210.921V210.921ZM282.736 212.656C282.803 212.692 282.865 212.738 282.936 212.765C282.979 212.782 283.117 212.805 283.074 212.785C282.966 212.732 282.849 212.698 282.736 212.656V212.656ZM283.674 213.853C283.62 213.77 283.72 214.047 283.766 214.134C283.781 214.163 283.806 214.187 283.832 214.209C283.78 214.089 283.745 213.962 283.674 213.853V213.853ZM201.143 223.761C201.156 223.787 201.17 223.812 201.184 223.838C201.208 223.849 201.235 223.857 201.258 223.871C201.254 223.867 201.252 223.863 201.248 223.859C201.222 223.835 201.189 223.812 201.166 223.787C201.158 223.779 201.15 223.77 201.142 223.761H201.143ZM205.844 228.22C205.843 228.21 205.838 228.245 205.834 228.248C205.838 228.253 205.841 228.256 205.845 228.261C205.843 228.244 205.846 228.242 205.843 228.22L205.844 228.22ZM206.08 228.543L206.078 228.545C206.082 228.547 206.086 228.549 206.09 228.551C206.087 228.548 206.083 228.546 206.08 228.543H206.08ZM206.428 228.611C206.431 228.62 206.436 228.628 206.439 228.636L206.441 228.634C206.436 228.626 206.425 228.602 206.428 228.611V228.611ZM206.441 228.617C206.443 228.626 206.44 228.637 206.443 228.646C206.449 228.661 206.457 228.675 206.463 228.689L206.465 228.687C206.488 228.661 206.472 228.638 206.442 228.617H206.441ZM207.4 229.592C207.383 229.596 207.367 229.603 207.346 229.605C207.345 229.62 207.347 229.634 207.344 229.648L207.4 229.592ZM234.729 257.254C234.686 257.265 234.646 257.278 234.598 257.287C234.608 257.305 234.628 257.323 234.633 257.342C234.681 257.356 234.72 257.392 234.764 257.418C234.755 257.363 234.74 257.309 234.729 257.254V257.254ZM236.213 258.656C236.19 258.67 236.174 258.682 236.156 258.693L236.168 258.705C236.183 258.689 236.198 258.672 236.213 258.656ZM242.027 269.988C242.022 269.998 242.018 270.008 242.014 270.017C242.017 270.025 242.019 270.031 242.022 270.039C242.023 270.042 242.021 270.042 242.024 270.045C242.032 270.029 242.038 270.015 242.045 270C242.038 269.996 242.034 269.992 242.028 269.988L242.027 269.988Z" fill="black"/>
<path id="path2-3" d="M360.416 0.776855L348.442 2.72218C334.992 4.90618 322.511 10.7776 312.348 19.7046C294.492 35.4156 285.405 58.8708 288.038 82.4468C290.892 108.038 281.772 133.479 263.018 152.242L239.028 176.224C238.87 176.508 238.712 176.792 238.536 177.064C237.898 178.048 236.767 178.716 235.78 179.292C235.527 179.446 235.537 179.441 235.491 179.47C235.673 184.32 235.605 189.17 235.247 193.982L236.674 195.41C236.709 195.392 236.749 195.375 236.784 195.357C237.385 194.705 237.985 194.054 238.664 193.488C241.431 191.181 245.09 188.917 248.137 186.996C249.2 186.326 250.267 185.663 251.344 185.017C251.569 184.882 251.826 184.597 252.069 184.4L273.627 162.845C295.622 140.839 306.309 110.93 302.946 80.7828C300.854 62.0678 308.072 43.4433 322.25 30.9683C327.047 26.7553 332.502 23.4022 338.387 21.0132L330.325 46.857C329.228 50.364 328.672 54.0024 328.672 57.6734C328.672 73.6434 338.919 87.5725 354.174 92.3355C373.277 98.2865 393.678 87.5888 399.643 68.4878L407.924 41.939C414.225 51.159 417.695 62.0077 417.877 73.4507C418.128 89.1967 412.138 104 401.014 115.128C394.463 121.67 386.717 126.408 377.987 129.214C362.273 134.271 347.958 142.953 336.59 154.32L281.241 209.669C281.019 211.547 279.744 213.627 276.991 215.306C274.917 216.571 272.724 217.593 270.573 218.71C270.388 219.034 270.224 219.339 270.034 219.671C269.8 220.079 269.557 220.483 269.315 220.886C270.057 220.865 270.799 220.843 271.541 220.822C271.02 221.243 270.505 221.675 269.989 222.107C269.985 222.114 269.98 222.123 269.975 222.13C270.386 222.26 270.981 221.862 271.86 220.669C272.074 220.363 272.298 220.05 272.438 219.861C272.553 219.706 272.216 220.179 272.106 220.337C272.019 220.463 271.942 220.558 271.86 220.669C271.557 221.104 271.26 221.551 271.129 221.832C270.676 222.805 270.532 223.65 270.293 224.677C270.006 225.912 269.6 226.966 269.112 227.847L276.051 234.787C276.176 234.751 276.034 234.784 277.151 234.488C277.344 234.437 277.537 234.391 277.731 234.343C278.527 233.759 279.536 233.549 280.526 233.421C281.324 232.932 282.174 232.553 283.049 232.189C281.398 233.22 281.406 233.077 281.135 233.341C281.442 233.31 281.746 233.281 282.032 233.25C282.737 233.171 282.625 233.183 282.561 233.189C282.774 232.85 283 232.515 283.223 232.179C283.299 232.025 283.396 231.877 283.512 231.736C283.537 231.7 283.56 231.672 283.584 231.636C283.384 231.664 283.211 231.68 282.989 231.714C282.925 231.724 282.89 231.729 282.821 231.74C282.697 231.753 282.326 231.777 282.45 231.779C282.632 231.782 282.812 231.755 282.989 231.714C283.252 231.655 283.505 231.545 283.748 231.414C284.336 230.582 284.909 229.856 285.383 229.416C285.354 229.377 285.321 229.359 285.286 229.373C285.359 229.315 285.481 229.204 285.745 228.921C286.351 228.274 286.94 227.573 287.616 226.998C287.826 226.819 288.053 226.66 288.276 226.498C288.378 226.368 288.489 226.246 288.596 226.121L287.299 224.824L347.196 164.927C356.886 155.235 369.122 147.825 382.577 143.496C393.437 140.005 403.478 133.864 411.618 125.736C425.641 111.706 433.19 93.0534 432.875 73.2124C432.561 53.3764 424.406 34.9609 409.914 21.3569L401.186 13.1635L385.325 64.019C381.824 75.228 369.848 81.5071 358.637 78.0151C349.686 75.2201 343.672 67.0453 343.672 57.6733C343.672 55.5223 343.997 53.3886 344.641 51.3276L360.416 0.776855ZM282.561 233.189C282.56 233.191 282.558 233.193 282.557 233.195C282.564 233.193 282.57 233.189 282.576 233.187C282.578 233.187 282.559 233.189 282.561 233.189H282.561ZM282.577 233.187C282.553 233.189 282.695 233.174 282.758 233.167C282.763 233.159 282.772 233.145 282.778 233.136C282.711 233.153 282.643 233.168 282.577 233.187L282.577 233.187ZM206.721 214.812C202.04 216.819 201.398 217.1 200.709 217.39C200.721 217.451 200.736 217.511 200.746 217.572C200.841 218.11 200 218.37 199.602 218.744C199.437 218.899 199.265 219.048 199.098 219.201C199.541 219.367 200.275 219.411 201.424 219.285C201.694 219.255 202.495 219.125 202.233 219.195C201.18 219.477 200.038 219.35 199.032 219.861C198.677 219.967 198.329 220.088 197.979 220.208C196.507 221.496 194.998 222.742 193.582 224.093C191.753 225.84 189.944 226.692 188.368 226.882L136.586 278.665C126.905 288.354 114.675 295.764 101.217 300.095C90.1952 303.638 80.4241 309.617 72.1781 317.863C58.1541 331.888 50.6024 350.536 50.9144 370.371C51.2274 390.208 59.3823 408.626 73.8773 422.234L82.6059 430.427L98.4731 379.576C100.163 374.144 103.871 369.697 108.912 367.054C113.952 364.411 119.718 363.888 125.153 365.585C134.107 368.374 140.123 376.54 140.123 385.904C140.123 388.033 139.793 390.175 139.143 392.263L123.383 442.814L135.358 440.869C148.812 438.682 161.29 432.81 171.448 423.886C189.304 408.175 198.391 384.719 195.758 361.144C192.904 335.552 202.024 310.112 220.78 291.349L238.428 273.701C238.425 273.319 238.423 272.938 238.42 272.556C238.418 272.349 238.371 272.137 238.414 271.935C238.803 270.259 239.244 268.595 239.658 266.925C243.74 262.745 243.219 261.783 248.66 260.947C248.924 260.906 249.189 260.898 249.455 260.902C246.321 258.933 243.367 256.97 240.533 254.64C239.154 255.443 237.752 256.209 236.35 256.972C232.764 258.923 231.933 259.353 230.647 259.955L230.799 260.107L210.166 280.742C188.17 302.748 177.483 332.658 180.846 362.806C182.938 381.52 175.718 400.144 161.539 412.619C156.743 416.832 151.288 420.187 145.4 422.576L153.461 396.724C154.562 393.188 155.119 389.547 155.119 385.904C155.119 369.937 144.868 356.016 129.615 351.265C120.358 348.375 110.531 349.264 101.943 353.767C93.3514 358.272 87.0325 365.853 84.1505 375.109L75.8692 401.65C69.5642 392.426 66.0912 381.574 65.9102 370.13C65.6622 354.391 71.6543 339.594 82.7833 328.466C89.3273 321.921 97.0737 317.18 105.807 314.373C121.526 309.314 135.837 300.632 147.193 289.267L196.956 239.505C197.002 239.06 197.052 238.615 197.178 238.187C197.817 236.018 199.105 234.185 201.028 232.974C202.019 232.35 202.753 232.175 203.719 231.927C203.88 231.804 204.089 231.649 204.125 231.605C204.386 231.417 204.635 231.213 204.907 231.042C205.885 230.426 205.4 230.799 206.141 230.417C206.56 230.202 206.823 229.978 207.254 229.744C207.315 229.711 207.379 229.684 207.44 229.652C208.019 228.809 208.288 228.692 209.516 227.584C212.12 226.095 209.924 227.297 211.719 226.41C211.811 226.364 211.896 226.305 211.985 226.253C212.177 226.146 212.363 226.025 212.561 225.929C212.933 225.749 214.881 224.886 215.291 224.703C215.588 224.56 215.885 224.417 216.182 224.277L206.721 214.812ZM196.997 220.544C196.846 220.598 196.694 220.651 196.543 220.705C196.791 221.179 196.928 221.052 196.997 220.544ZM288.266 226.507C288.111 226.634 288.011 226.725 288.155 226.656C288.193 226.607 288.227 226.556 288.266 226.507ZM287.416 228.929C287.32 229 287.274 229.023 287.184 229.087C287.162 229.131 287.132 229.171 287.11 229.214C287.212 229.119 287.315 229.025 287.416 228.929H287.416ZM286.709 229.412C286.624 229.469 286.577 229.503 286.495 229.558C286.495 229.566 286.498 229.568 286.499 229.576C286.561 229.545 286.629 229.523 286.694 229.494C286.699 229.467 286.701 229.445 286.709 229.412L286.709 229.412ZM282.627 233.373C282.547 233.408 282.467 233.444 282.387 233.48C281.515 234.893 280.821 236.161 280.661 236.574C280.706 236.562 280.752 236.552 280.797 236.54C281.013 236.268 281.211 235.983 281.395 235.687C281.48 235.434 281.571 235.182 281.692 234.945C281.951 234.436 282.312 233.985 282.606 233.496C282.631 233.453 282.485 233.646 282.5 233.599C282.527 233.516 282.58 233.446 282.627 233.373V233.373ZM310.936 248.46C311.001 248.657 311.075 248.864 311.139 249.06C311.245 249.033 311.35 249.005 311.455 248.978L310.936 248.46ZM237.727 252.156C237.484 252.243 237.241 252.327 237.006 252.39C237.004 252.415 237 252.44 236.998 252.464C236.762 255.727 237.418 254.892 238.367 252.763C238.25 252.655 238.131 252.556 238.014 252.447C237.914 252.354 237.823 252.252 237.727 252.156L237.727 252.156Z" fill="black"/>
<path id="path2-6" d="M285.383 132.425L262.764 156.33L262.639 156.212C260.905 158.311 258.813 160.098 257.008 162.132C255.92 163.359 254.892 164.641 253.862 165.917C251.889 168.361 252.288 167.758 251.397 169.222C250.294 171.034 248.968 171.944 247.745 172.201L151.317 274.107C153.45 275.786 156.237 277.97 158.952 280.099C159.628 279.437 160.272 278.737 160.999 278.13C161.251 277.92 161.507 277.741 161.766 277.574C162.409 277.024 163.087 276.535 163.717 275.972C163.721 275.969 163.725 275.965 163.729 275.962C163.803 275.878 163.879 275.794 163.944 275.706C163.986 275.649 163.88 275.804 163.825 275.882C163.864 275.85 163.903 275.817 163.942 275.784C164.08 275.606 164.218 275.427 164.354 275.247C164.182 275.296 164.323 275.071 164.94 274.443C164.984 274.386 165.04 274.317 165.088 274.255C164.931 274.246 165.311 273.773 165.743 273.437C166.139 272.951 166.556 272.448 167.2 271.634C167.565 271.173 168.142 270.935 168.635 270.611C170.24 269.175 169.76 269.484 172.391 268.128C172.637 268.002 172.895 267.903 173.153 267.804C173.721 267.274 174.337 266.8 175.032 266.417C175.649 266.077 176.308 265.818 176.956 265.538C177.18 265.442 177.429 265.406 177.643 265.288C177.789 265.208 177.324 265.378 177.165 265.423C177.468 265.249 177.784 265.097 178.075 264.902C178.095 264.888 178.024 264.851 178.041 264.833C178.243 264.635 178.465 264.458 178.692 264.29C179.198 263.916 179.711 263.552 180.239 263.208C184.149 260.663 180.495 263.211 183.303 261.224C183.891 260.828 184.469 260.422 185.065 260.038C185.235 259.928 185.412 259.827 185.582 259.718L285.612 154.009C285.562 153.96 285.507 153.916 285.457 153.866C285.172 153.582 286.435 151.595 287.202 150.421C285.868 148.858 285.615 148.277 287.631 149.751C287.669 149.694 287.83 149.441 287.842 149.421C288.327 148.822 288.742 148.212 289.143 147.554C289.417 147.104 289.528 146.573 289.737 146.089C289.781 145.986 289.675 146.304 289.643 146.411C289.692 146.279 289.733 146.166 289.778 146.04C289.778 145.845 289.775 145.65 289.774 145.454C289.774 145.391 289.768 145.202 289.772 145.265C289.779 145.384 289.78 145.503 289.784 145.622C289.788 145.747 289.799 145.846 289.805 145.964C290.258 144.701 290.595 143.733 291.563 142.49C291.642 142.388 291.733 142.297 291.821 142.202C291.971 141.343 292.144 140.929 292.426 140.234C292.598 139.47 292.776 138.701 293.153 138.023C293.319 137.724 293.499 137.449 293.688 137.187C290.92 135.599 288.151 134.012 285.383 132.425L285.383 132.425ZM287.631 149.751C287.554 149.868 287.355 150.187 287.202 150.421C287.441 150.702 287.78 151.072 288.077 151.406L288.821 150.621C288.634 150.481 288.441 150.348 288.256 150.207C287.989 150.001 287.845 149.908 287.631 149.751ZM164.94 274.443C164.778 274.653 164.645 274.84 164.54 275.005C164.728 274.756 164.921 274.509 165.112 274.261C165.027 274.345 165.011 274.371 164.94 274.443ZM164.54 275.005C164.478 275.086 164.415 275.167 164.354 275.248C164.369 275.244 164.395 275.231 164.415 275.222C164.452 275.153 164.494 275.077 164.54 275.005L164.54 275.005ZM329.905 157.978L190.575 305.22C194.407 308.439 198.219 311.689 202.032 314.937L287.299 224.824C287.244 223.943 287.989 222.409 289.118 219.152C289.649 218.544 290.164 217.92 290.688 217.306C289.227 215.931 288.888 215.494 290.985 216.976C291.403 216.492 291.819 216.007 292.264 215.548C295.611 212.1 302.683 205.598 305.934 202.589C307.412 201.221 308.902 199.867 310.385 198.505C311.113 197.837 311.876 197.204 312.569 196.499C313.162 195.896 313.68 195.223 314.237 194.585C316.119 192.428 318.069 191.083 319.917 190.359L336.362 172.976L336.424 173.035C338.562 170.484 340.711 167.937 342.956 165.48C338.606 162.979 334.255 160.478 329.905 157.978V157.978ZM290.985 216.976C290.888 217.089 290.784 217.193 290.688 217.306C291.158 217.749 292.022 218.546 292.674 219.146L293.229 218.56C292.807 218.268 292.388 217.979 291.93 217.646C291.522 217.349 291.288 217.19 290.985 216.976V216.976ZM175.342 267.148C175.739 267.042 174.609 267.257 174.18 267.478C174.568 267.369 174.953 267.252 175.342 267.148ZM165.907 273.808C165.699 273.941 165.483 274.084 165.315 274.167C165.29 274.198 165.257 274.228 165.241 274.257C165.13 274.454 165.036 274.658 164.942 274.863C165.09 274.72 165.243 274.59 165.452 274.445C165.592 274.225 165.755 274.02 165.907 273.808L165.907 273.808ZM162.614 277.732C162.57 277.775 162.526 277.816 162.483 277.859C162.455 277.903 162.367 278.029 162.401 277.99C162.472 277.904 162.543 277.818 162.614 277.732H162.614ZM158.977 280.087C158.97 280.093 158.967 280.096 158.958 280.105C158.962 280.108 158.964 280.11 158.968 280.113C158.971 280.105 158.974 280.096 158.978 280.088L158.977 280.087Z" fill="black"/>
</g>
<defs>
<clipPath id="clip0">
<rect width="441.035" height="442.814" fill="white"/>
</clipPath>
</defs>
</svg>
